# xmcd
# 
# Track frame offsets:
#     150
#     28143
#     45293
#     60318
#     81505
#     99433
#     111615
#     122395
#     134690
#     151478
#     162270
#     176645
#     191128
#     209560
#     226075
# 
# Disc length: 3106
# 
# Revision: 6
# Processed by: cddbd v1.5.2PL0 Copyright (c) Steve Scherf et al.
# Submitted via: fre:ac v1.0.17
# 
DISCID=ce0c200f
DTITLE=Johnny Cash and Willie Nelson - VH1 Storytellers
DYEAR=1998
DGENRE=Country
TTITLE0=(Ghost) Riders In The Sky
TTITLE1=Worried Man
TTITLE2=Family Bible
TTITLE3=Don't Take Your Guns To Town
TTITLE4=Funny How Time Slips Away
TTITLE5=Flesh And Blood
TTITLE6=Crazy
TTITLE7=Unchained
TTITLE8=Night Life
TTITLE9=Drive On
TTITLE10=Me And Paul
TTITLE11=I Still Miss Someone
TTITLE12=Always On My Mind
TTITLE13=Folsom Prison Blues
TTITLE14=On The Road Again
EXTD=CK 69416/American  Recording Company/1998\nProduced by Rick Rubin\n
EXTT0=
EXTT1=
EXTT2=
EXTT3=
EXTT4=
EXTT5=
EXTT6=
EXTT7=
EXTT8=
EXTT9=
EXTT10=
EXTT11=
EXTT12=
EXTT13=
EXTT14=
PLAYORDER=
